<?xml version="1.0" encoding="utf-8"?>
<!-- Generator: Adobe Illustrator 26.0.3, SVG Export Plug-In . SVG Version: 6.00 Build 0)  -->
<svg version="1.1" id="svg7861" xmlns="http://www.w3.org/2000/svg" xmlns:xlink="http://www.w3.org/1999/xlink" x="0px" y="0px"
	 viewBox="0 0 200 200" style="enable-background:new 0 0 200 200;" xml:space="preserve">
<style type="text/css">
	.st0{fill:#FFFFFF;stroke:#000000;stroke-miterlimit:10;}
</style>
<path id="path7871" class="st0" d="M58.6,155.4c-4.7-2.2-8.5-6.6-8.6-11.8c-0.1-6.7,3.7-12.6,10.9-12.7c3,0,7,1.2,8.1,6.2
	c0.1,5.3-3.5,9.8-8,12.2c0.4,1.6,1.7,2.9,4.3,2.3c7.9-2,13.3-12.8,21.8-43.7c3.4-12.4,6.7-25.1,7-26.1h-12v-5.9h15.5l1.8-4.1
	c4.9-10.9,14.5-20.9,24.9-25.3c6.8-2.8,15-3,18.6-1.3c6.2,2.9,7.8,10,4.6,17.5c-2.3,5.4-5.7,7-9.9,6.5c-3.1-0.4-5.9-3.1-6.2-5.5
	c-0.4-3.5,1-6.6,4.7-8.9c2-1.2,4.1-1.3,5-2.8c-4.3-6.4-11.4-2.4-15.7,3.9c-1.4,2-4.1,7.2-6,11.5l-3.5,8.4h17.1v5.9h-18.6l-3.8,12.3
	c-7.9,25.7-16.8,44.2-25.3,53C77.3,155.4,66.4,159.1,58.6,155.4L58.6,155.4z"/>
</svg>
